<?xml version="1.0" encoding="UTF-8" standalone="no"?>
<svg xmlns:rdf="http://www.w3.org/1999/02/22-rdf-syntax-ns#" xmlns="http://www.w3.org/2000/svg" xmlns:osb="http://www.openswatchbook.org/uri/2009/osb" height="87" width="87" version="1.0" xmlns:cc="http://creativecommons.org/ns#" xmlns:xlink="http://www.w3.org/1999/xlink" xmlns:dc="http://purl.org/dc/elements/1.1/">
<path fill="currentColor" d="m43.5 70.338q-0.58648 2.3877-1.4243 3.3093-0.83779 0.92157-2.2202 1.9269-1.508 1.0472-3.5606 1.7803-2.0526 0.73307-4.566 0.35606l-11.771-1.6337q-0.71211-0.0838-1.2776 0-0.5655 0.0839-1.0682 0.0839-0.87967 0-2.2411 0.39796-1.3614 0.39795-2.1154 1.152l-4.0639-6.661q0.75402-0.8378 1.3405-1.1729 0.58646-0.33512 1.3824-0.71213 2.4296-1.131 5.1943-1.3824 1.1729-0.0839 2.304-0.0419 1.131 0.0419 2.3458-0.0838 2.262 0.37701 4.545 0.69119 2.283 0.31417 4.5869 0.64929 2.5134 0 3.3931-0.50268 0.46081-0.25134 1.4662-0.92158t2.0107-1.9688q-2.2202-0.25132-4.5241-0.85873-2.3039-0.6074-4.0633-1.2776l4.3565-10.808q-3.2674-1.885-4.566-3.037t-2.0526-2.66q-1.0891-1.9269-1.4033-3.7282-0.31416-1.8013-0.27229-3.2255 0.0419-2.5134 1.1939-5.5504t4.3356-5.4247q2.639-2.0107 5.1524-4.1471t4.9849-4.9849q-3.0998-1.5918-3.0998-5.0687 0-2.3458 1.6547-4.0214 1.6546-1.6756 4.0424-1.6756 2.3458 0 4.0214 1.6756t1.6756 4.0214q0 3.435-3.0998 5.0687 2.4296 2.8485 4.922 4.9849t5.2153 4.1471q3.1418 2.3877 4.2728 5.4247t1.2148 5.5504q0 1.4242-0.29323 3.2255t-1.3405 3.7282q-0.83782 1.508-2.1155 2.66-1.2776 1.152-4.5032 3.037l4.3565 10.808q-1.8431 0.67024-4.1471 1.2776-2.3039 0.60741-4.4403 0.85873 0.96345 1.2986 1.9688 1.9688 1.0053 0.67024 1.508 0.92158 0.87968 0.50268 3.3931 0.50268 2.262-0.33512 4.545-0.64929 2.283-0.31418 4.5869-0.69119 1.131 0.1256 2.283 0.0838 1.152-0.0419 2.3667 0.0419 2.681 0.25134 5.1944 1.3824 0.75402 0.37701 1.3614 0.71213 0.60741 0.33511 1.3614 1.1729l-4.1052 6.6605q-0.754-0.75402-2.1154-1.152-1.3614-0.39796-2.1992-0.39796-0.54457 0-1.1101-0.0839-0.56551-0.0838-1.2776 0l-11.729 1.6337q-2.5134 0.37701-4.6707-0.33512-2.1573-0.71211-3.5397-1.885-1.3824-1.131-2.1992-1.9479-0.81686-0.81685-1.3614-3.2046z"/>
<g fill="#fff">
<path d="m54.642 62.379-1.7594-4.2728q-4.2727-0.92156-9.3833-0.92156-5.0687 0-9.2995 0.92156l-1.7594 4.2309q5.1943-1.2986 11.059-1.2986 5.7808 0 11.143 1.3405z"/>
<path d="m51.124 53.75-1.2148-2.9323v-1.131q-3.1836-0.46079-6.4091-0.46079-3.1417 0-6.3672 0.46079l-0.0419 1.131-1.131 2.9323q3.5606-0.62835 7.5402-0.62835 4.0214 0 7.6239 0.62835z"/>
<path d="m49.658 69.584q-1.6756-1.2567-3.3512-3.9795h-1.3405q0 2.0526 0.96347 3.9795h3.7282z"/>
<path d="m41.028 69.584q0.96347-2.0526 0.96347-3.9795h-1.3405q-1.6337 2.6809-3.3931 3.9795h3.7701z"/>
<path d="m41.95 39.172v3.5606q0 1.5499 1.5499 1.5499t1.5499-1.5499v-3.6025h3.77q1.4662 0 1.4662-1.508t-1.4662-1.508h-3.77v-3.7701q0-1.5499-1.5499-1.5499t-1.5499 1.5499v3.7701h-3.6863q-1.4661 0-1.4661 1.508t1.4661 1.508z"/>
</g>
</svg>
