<?xml version="1.0" encoding="UTF-8" standalone="no"?>
<svg xmlns:rdf="http://www.w3.org/1999/02/22-rdf-syntax-ns#" xmlns="http://www.w3.org/2000/svg" xmlns:osb="http://www.openswatchbook.org/uri/2009/osb" height="87" width="87" version="1.0" xmlns:cc="http://creativecommons.org/ns#" xmlns:xlink="http://www.w3.org/1999/xlink" xmlns:dc="http://purl.org/dc/elements/1.1/">
<path fill="currentColor" d="m20.005 64.534-1.3824-7.8334q-0.04198 0-0.12572-0.16756-0.20946-0.29323-1.1939-0.77496-0.98439-0.48173-2.283-1.6546-1.8431-1.5499-2.8694-2.5134-1.0263-0.96346-1.8641-2.0945-2.5553-3.5187-2.8485-8.5036-0.41889-4.8173 3.8957-9.5928 4.3565-4.7754 11.771-4.4822 2.7647 0.16756 6.4929 1.3405 1.2148 0.50268 2.4924 0.98441t2.5343 0.98441q0.67022 0.33512 1.1729 0.67024-0.20944-0.87969-0.20944-1.7594 0-3.2674 2.3249-5.5713t5.5923-2.3458q3.2674 0 5.5713 2.3249t2.3039 5.5504q0 0.67024-0.16751 1.7594 0.58645-0.37701 1.131-0.62835 1.9269-0.83779 5.0687-1.9688 3.6025-1.2148 6.4929-1.3824 7.4145-0.33512 11.729 4.4822 4.2309 4.7754 3.9376 9.5928-0.33512 4.9849-2.8904 8.5036-0.8378 1.131-1.885 2.1154-1.0472 0.98441-2.8066 2.4924-1.3824 1.1729-2.3458 1.6546-0.96347 0.48173-1.131 0.77496-0.04198 0.08376-0.08374 0.12567-0.04198 0.04189-0.04198 0.08376l-1.3405 7.8753 2.7647 10.347q-2.0945 1.885-9.3833 3.0998t-16.84 1.2148q-9.7184 0-17.091-1.2776t-9.2576-3.2046z"/>
<g fill="#fff">
<path d="m64.533 29.934c-2.569 0-5.25 0.556-8.043 1.673-2.541 1.006-4.384 2.095-5.529 3.268-2.374 2.29-4.104 5.307-5.193 9.049-0.419 1.284-0.65 2.917-0.692 4.9s-0.062 3.52-0.062 4.61c4.803 0.083 8.74 0.32 11.812 0.711s5.836 0.852 8.293 1.382c1.536-1.508 3.24-2.946 5.111-4.314 1.872-1.369 3.184-2.542 3.938-3.52 1.34-1.815 2.012-4.076 2.012-6.785 0-2.485-0.602-4.566-1.803-6.242-2.15-3.156-5.431-4.732-9.844-4.732zm-1.465 3.392c1.564 0 3.12 0.272 4.67 0.817 1.55 0.544 2.716 1.375 3.498 2.492 0.698 0.949 1.047 2.485 1.047 4.607 0 1.676-0.684 3.241-2.053 4.694-0.893 0.921-1.857 1.849-2.89 2.785-1.033 0.935-2.025 2.03-2.975 3.287-1.619-0.559-3.873-0.99-6.763-1.297-2.891-0.307-6.069-0.489-9.532-0.545 0-0.81 0.092-1.963 0.274-3.457 0.181-1.494 0.466-2.66 0.857-3.498 1.033-2.262 2.515-4.356 4.442-6.283 0.558-0.559 1.758-1.312 3.601-2.262 1.815-0.894 3.758-1.34 5.824-1.34z"/>
<path d="m64.199 60.68q-7.7077-2.1364-20.526-2.1364-12.902 0-20.777 2.1783l0.62835 4.2309q7.9172-2.0526 20.149-2.0526 12.19 0 19.856 2.0107z"/>
<path d="m65.288 73.205-1.2567-4.943q-8.1685-1.885-20.526-1.885-12.232 0-20.442 1.885l-1.3405 4.9849q7.9591-2.4296 21.825-2.4296 6.6605 0 12.357 0.67024 5.697 0.67024 9.3833 1.7175z"/>
<path d="m22.477 29.85c-4.413 0-7.681 1.576-9.803 4.732-1.201 1.676-1.801 3.77-1.801 6.283 0 2.737 0.669 4.985 2.01 6.744 0.698 1.006 2.039 2.249 4.021 3.729 1.983 1.48 3.659 2.849 5.028 4.105 2.429-0.53 5.174-0.991 8.232-1.382s7.001-0.615 11.832-0.67c0-1.117-0.026-2.66-0.082-4.629s-0.266-3.61-0.629-4.922c-1.145-3.742-2.877-6.757-5.195-9.047-1.201-1.173-3.044-2.262-5.529-3.268-2.849-1.117-5.543-1.675-8.084-1.675zm1.382 3.476c2.011 0 3.937 0.446 5.78 1.34 1.815 0.95 3.017 1.703 3.603 2.262 1.899 1.927 3.378 4.021 4.44 6.283 0.363 0.838 0.636 2.004 0.818 3.498s0.285 2.647 0.312 3.457c-3.49 0.056-6.679 0.238-9.57 0.545-2.89 0.307-5.133 0.738-6.724 1.297-0.838-1.033-1.807-2.072-2.911-3.119-1.103-1.048-2.074-2.032-2.912-2.953-1.396-1.425-2.093-2.99-2.093-4.694 0-2.094 0.348-3.63 1.046-4.607 0.754-1.117 1.913-1.948 3.477-2.492 1.564-0.545 3.143-0.817 4.734-0.817z"/>
<path d="m43.506 24.152c-3.323 0-4.986 1.661-4.986 4.985 0 0.642 0.112 1.242 0.335 1.801 0.615 1.815 1.089 3.073 1.424 3.771 0.363 0.81 0.699 1.528 1.006 2.156 0.307 0.629 0.572 1.18 0.795 1.655 0.363 0.921 0.671 1.844 0.922 2.765 0.056 0.168 0.225 0.698 0.504 1.592 0.195-0.782 0.362-1.328 0.502-1.635 0.279-1.089 0.6-2.009 0.963-2.763 0.167-0.475 0.413-1.026 0.734-1.655 0.321-0.628 0.662-1.348 1.025-2.158 0.224-0.475 0.462-1.054 0.713-1.738 0.252-0.684 0.503-1.361 0.754-2.032 0.224-0.558 0.334-1.158 0.334-1.8 0-1.369-0.487-2.535-1.465-3.498-0.977-0.964-2.164-1.446-3.56-1.446zm0 3.268c1.48 0 2.219 0.725 2.219 2.178 0 0.363-0.057 0.629-0.168 0.797-0.391 1.061-0.599 1.633-0.627 1.716-0.419 0.838-0.685 1.382-0.797 1.633-0.196 0.447-0.321 0.852-0.377 1.215-0.084 0.168-0.14 0.314-0.168 0.439-0.028 0.126-0.054 0.231-0.082 0.315-0.056-0.279-0.127-0.516-0.211-0.711-0.168-0.559-0.306-0.964-0.418-1.215-0.084-0.195-0.196-0.441-0.336-0.734s-0.278-0.607-0.418-0.942c-0.084-0.195-0.189-0.454-0.314-0.775-0.126-0.321-0.231-0.621-0.315-0.9-0.084-0.252-0.125-0.518-0.125-0.797 0-1.48 0.713-2.219 2.137-2.219z"/>
</g>
<path fill="currentColor" d="m44.971 21.094h-2.9742v-5.4876h-3.4768q-1.4243 0-1.4243-1.3824v-0.04189q0-1.3824 1.4243-1.3824h3.4768v-3.5606q0-1.4661 1.508-1.4661 1.4661 0 1.4661 1.4661v3.5606h3.6025q1.3824 0 1.3824 1.3824v0.04189q0 1.3824-1.3824 1.3824l-3.5606 0.04189z"/>
</svg>
