<?xml version="1.0" encoding="UTF-8" standalone="no"?>
<svg xmlns:rdf="http://www.w3.org/1999/02/22-rdf-syntax-ns#" xmlns="http://www.w3.org/2000/svg" xmlns:osb="http://www.openswatchbook.org/uri/2009/osb" height="87" width="87" version="1.0" xmlns:cc="http://creativecommons.org/ns#" xmlns:xlink="http://www.w3.org/1999/xlink" xmlns:dc="http://purl.org/dc/elements/1.1/">
<path fill="currentColor" d="m45.762 16.127q6.5767 0.4189 12.19 3.3931 5.6132 2.9742 9.5509 7.6239 2.7647 3.2674 5.2153 7.8753t3.9167 9.7603q1.6756 5.9902 2.1154 12.588 0.43983 6.5976 0.43983 12.211v9.132h-6.5138-16.902-28.108q-0.377 0-0.35604-2.0526 0.0209-2.0526 0.27226-3.3093 0.16753-1.0054 0.79591-2.8485 0.62835-1.8431 2.0945-4.4822 0.67024-1.3404 3.1836-3.9167 2.5134-2.5762 5.7808-5.9693 1.885-1.9269 2.9532-4.8592t0.90063-5.32q-1.5499 1.2567-3.3931 2.0526-8.8806 3.1836-12.86 9.2157-0.29323 0.37701-1.885 3.3931-0.8378 1.5918-1.4243 2.1783-0.79591 0.79591-2.3039 0.87969-2.3458 0.1256-3.6444-2.2621-1.7594 0.50268-3.1417 0.4189-2.3458-0.87968-3.3931-1.885-2.1364-2.1364-2.7857-4.2728-0.64928-2.1364-0.64928-4.6079 0-3.5187 4.3565-9.2995 5.1106-6.6604 5.4457-10.137 0-1.508 0.29321-3.3931 0.25134-1.2986 1.0472-2.5134 0.54457-0.8378 0.73307-1.152 0.18851-0.31417 0.69119-0.94252 0.37701-0.50268 0.62835-0.77496 0.25134-0.27229 0.62834-0.73306 0.46079-0.54457 1.1729-1.2567-2.2201-6.1159-1.8012-12.609 8.336 2.9742 13.991 9.3414 1.3824-4.7335 5.4457-7.6658 3.3512 2.3458 5.32 6.1997z"/>
<g fill="#fff">
<path d="m21.089 58.603q0.16752-0.37701 0.54456-1.131 0.71213-1.7594 0.71213-2.0945-0.0839-1.1729-1.2148-1.1729-0.8378 0-1.9688 2.3877-0.16752 0.33512-0.50268 0.58646-1.131 1.1729 0.33512 1.9688 1.3405 0.79591 2.0945-0.54457z"/>
<path d="m45.804 43.062q2.9323-3.8538 2.8904-8.5874-0.16752-1.3824-1.5918-1.3824-1.9269 0-1.508 1.4243 0.1256 2.3039-0.46079 3.812-0.96347 2.3877-2.1364 3.5606-0.62835 1.2567 0.75402 1.8432 1.3405 0.62835 2.0526-0.67024z"/>
<path d="m34.871 22.62q-0.20945-1.508 0.0837-3.2674-2.5134 0.50268-4.7335 2.3458-1.3405 0.71211-0.62833 1.9688 0.71211 1.2986 1.9688 0.4189 0.87969-0.46079 1.6128-0.85874 0.73307-0.39796 1.6965-0.60741z"/>
<path d="m74.121 75.736q-0.0419 0 0.0837-2.283t0.1256-4.922q0.0419-5.2362 0-10.828-0.0419-5.5923-1.508-11.164-1.4242-5.3619-3.1417-9.1529t-3.7282-6.5557q-3.0161-4.5241-8.2104-7.6658t-10.849-4.1052q0.16752 0.96347 0.10472 1.9688t0.0209 1.9269q4.0633 1.3824 7.6658 3.435t5.2781 4.4403q2.0107 2.7647 3.7282 6.5557t3.1417 9.1529q1.4242 5.5713 1.4661 11.164 0.0419 5.5923 0.0419 10.828 0 2.639-0.1256 4.922t0 2.283h5.9064z"/>
<path d="m17.486 51.146q1.2148-0.83779 0.25134-2.0107-1.0054-0.96347-2.2202-0.16753-2.5553 1.6756-2.7228 4.3984 0.0419 1.3824 1.6337 1.2986 1.508-0.1256 1.4662-1.5499 0.33512-1.3405 1.5918-1.9688z"/>
<path d="m28.043 30.285 0.92158-0.46079q1.2567-0.50268 0.79591-1.8432-0.50268-1.2567-1.9269-0.8378-4.943 1.8013-6.828 6.6186-0.29323 1.3824 1.0054 1.885 1.2986 0.4189 1.7594-0.92157 0.33512-0.71213 0.50268-0.92158 0.46079 0.37701 1.2148 0.50268 2.5553 0.4189 2.9742-2.2621 0.1256-0.92156-0.4189-1.7594z"/>
</g>
</svg>
