<?xml version="1.0" encoding="UTF-8" standalone="no"?>
<svg xmlns:rdf="http://www.w3.org/1999/02/22-rdf-syntax-ns#" xmlns="http://www.w3.org/2000/svg" xmlns:osb="http://www.openswatchbook.org/uri/2009/osb" height="87" width="87" version="1.0" xmlns:cc="http://creativecommons.org/ns#" xmlns:xlink="http://www.w3.org/1999/xlink" xmlns:dc="http://purl.org/dc/elements/1.1/">
<path fill="currentColor" d="m43.521 77.787h-22.62q-1.6756-4.189-1.6756-8.755 0-7.7496 4.3984-13.907 4.3984-6.1578 11.31-8.7968-2.9742-1.3824-4.8383-4.168-1.8641-2.7857-1.8641-6.3044 0-4.3984 2.9323-7.6239t7.205-3.7282q-3.3931-2.5553-3.3931-6.7442 0-3.5188 2.4924-6.0321 2.4924-2.5134 6.0531-2.5134 3.5187 0 6.0321 2.5134t2.5134 6.0321q0 4.189-3.3931 6.7442 4.2728 0.50268 7.205 3.7282 2.9323 3.2255 2.9323 7.6239 0 3.5187-1.906 6.3044t-4.8383 4.168q6.9118 2.639 11.31 8.7968 4.3984 6.1578 4.3984 13.907 0 4.5241-1.6337 8.755h-22.62z"/>
</svg>
