<?xml version="1.0" encoding="UTF-8" standalone="no"?>
<svg xmlns:rdf="http://www.w3.org/1999/02/22-rdf-syntax-ns#" xmlns="http://www.w3.org/2000/svg" xmlns:osb="http://www.openswatchbook.org/uri/2009/osb" height="87" width="87" version="1.0" xmlns:cc="http://creativecommons.org/ns#" xmlns:xlink="http://www.w3.org/1999/xlink" xmlns:dc="http://purl.org/dc/elements/1.1/">
<path fill="currentColor" d="m69.261 75.132q-2.0526 1.8013-9.2157 3.0161t-16.505 1.2148q-9.509 0-16.714-1.2567t-9.0901-3.1418l2.6391-10.054-1.1729-6.5767-3.6863-6.4091-3.5606-26.055 2.0526-0.79591 11.478 19.353 0.25135-23.039 2.8485-0.50268 8.755 23.165 4.6917-24.924h2.8904l4.6917 24.841 8.6712-23.081 2.8904 0.50268 0.25135 23.039 11.52-19.395 1.9688 0.92158-3.4768 25.93-3.7282 6.4091-1.1729 6.6605z"/>
<path fill="#fff" d="m67.083 53.768q-3.4768-1.2567-9.7813-2.0736-6.3044-0.81686-13.928-0.81686-7.4564 0-13.656 0.77497-6.1997 0.77496-9.7603 2.0317l2.0945 3.812q3.5188-1.0472 9.132-1.508 5.6132-0.46079 12.274-0.46079 6.6605 0 12.316 0.46079 5.6551 0.46079 9.1739 1.5499z"/>
<g fill="currentColor">
<path d="m76.55 25.786q-2.3877 0-4.0633-1.6546t-1.6756-4.0424q0-2.3458 1.6756-4.0424 1.6756-1.6965 4.0633-1.6965 2.3458 0 4.0214 1.6965t1.6756 4.0424q0 2.3877-1.6756 4.0424-1.6756 1.6546-4.0214 1.6546z"/>
<path d="m10.448 25.786q-2.3877 0-4.0424-1.6546-1.6546-1.6546-1.6546-4.0424 0-2.3458 1.6546-4.0424 1.6547-1.6965 4.0424-1.6965t4.0633 1.6965 1.6756 4.0424q0 2.3877-1.6756 4.0424-1.6756 1.6546-4.0633 1.6546z"/>
<path d="m61.051 21.178q-2.3877 0-4.0424-1.6546-1.655-1.654-1.655-4.042 0-2.3458 1.6546-4.0214 1.6547-1.6756 4.0424-1.6756t4.0633 1.6756 1.6756 4.0214q0 2.3877-1.6756 4.0424-1.6756 1.6546-4.0633 1.6546z"/>
<path d="m25.864 21.178q-2.3877 0-4.0633-1.6546-1.6756-1.6547-1.6756-4.0424 0-2.3458 1.6756-4.0214t4.0633-1.6756q2.3458 0 4.0214 1.6756t1.6756 4.0214q0 2.3877-1.6756 4.0424-1.6756 1.6546-4.0214 1.6546z"/>
</g>
<path fill="#fff" d="m65.24 73.791-1.2567-4.943q-8.1685-1.885-20.526-1.885-12.232 0-20.442 1.885l-1.3405 4.9849q7.9591-2.4296 21.825-2.4296 6.6605 0 12.357 0.67024 5.697 0.67024 9.3833 1.7175z"/>
<path fill="#fff" d="m64.151 61.266q-7.7077-2.1364-20.526-2.1364-12.902 0-20.777 2.1782l0.62835 4.2309q7.9172-2.0526 20.149-2.0526 12.19 0 19.856 2.0107z"/>
<path fill="currentColor" d="m43.457 19.083q-2.3877 0-4.0424-1.6756t-1.6547-4.0633q0-2.3458 1.6547-4.0214 1.6546-1.6756 4.0424-1.6756 2.3458 0 4.0423 1.6756 1.6966 1.6756 1.6966 4.0214 0 2.3877-1.6966 4.0633-1.6965 1.6756-4.0423 1.6756z"/>
</svg>
