<?xml version="1.0" encoding="UTF-8" standalone="no"?>
<svg xmlns:rdf="http://www.w3.org/1999/02/22-rdf-syntax-ns#" xmlns="http://www.w3.org/2000/svg" xmlns:osb="http://www.openswatchbook.org/uri/2009/osb" height="87" width="87" version="1.0" xmlns:cc="http://creativecommons.org/ns#" xmlns:xlink="http://www.w3.org/1999/xlink" xmlns:dc="http://purl.org/dc/elements/1.1/">
<path fill="currentColor" d="m43.502 70.348q-0.58646 2.3877-1.4243 3.3093-0.8378 0.92158-2.2202 1.9269-1.508 1.0472-3.5606 1.7803-2.0526 0.73307-4.566 0.35605l-11.771-1.6337q-0.71211-0.0837-1.2776 0-0.5655 0.0837-1.0682 0.0837-0.87969 0-2.2411 0.39796-1.3614 0.39795-2.1154 1.152l-4.0633-6.6605q0.75402-0.8378 1.3405-1.1729 0.58645-0.33512 1.3824-0.71213 2.4296-1.131 5.1944-1.3824 1.1729-0.0838 2.3039-0.0419t2.3458-0.0839q2.262 0.37701 4.545 0.69119 2.283 0.31417 4.5869 0.64929 2.5134 0 3.3931-0.50268 0.46079-0.25134 1.4661-0.92158 1.0054-0.67024 2.0107-1.9688-2.2202-0.25134-4.5241-0.85874-2.3039-0.60739-4.0633-1.2776l4.3565-10.808q-3.2674-1.885-4.566-3.037t-2.0526-2.66q-1.0891-1.9269-1.4033-3.7282-0.31416-1.8013-0.27228-3.2255 0.0419-2.5134 1.1939-5.5504t4.3356-5.4247q2.639-2.0107 5.1524-4.1471t4.9849-4.9849q-3.0998-1.5918-3.0998-5.0687 0-2.3458 1.6546-4.0214t4.0424-1.6756q2.3458 0 4.0214 1.6756t1.6756 4.0214q0 3.435-3.0998 5.0687 2.4296 2.8485 4.922 4.9849t5.2153 4.1471q3.1417 2.3877 4.2728 5.4247 1.131 3.037 1.2148 5.5504 0 1.4242-0.29323 3.2255t-1.3405 3.7282q-0.83779 1.508-2.1154 2.66t-4.5032 3.037l4.3566 10.808q-1.8432 0.67024-4.1471 1.2776-2.304 0.6074-4.4403 0.85874 0.96345 1.2986 1.9688 1.9688 1.0054 0.67024 1.508 0.92158 0.87967 0.50268 3.3931 0.50268 2.2621-0.33512 4.545-0.64929 2.283-0.31418 4.5869-0.69119 1.131 0.1256 2.283 0.0839 1.152-0.0419 2.3668 0.0419 2.681 0.25134 5.1943 1.3824 0.75402 0.37701 1.3614 0.71213 0.6074 0.33511 1.3614 1.1729l-4.1052 6.6605q-0.75402-0.754-2.1155-1.152-1.3614-0.39796-2.1992-0.39796-0.54458 0-1.1101-0.0837-0.56553-0.0837-1.2776 0l-11.729 1.6337q-2.5134 0.37702-4.6707-0.33512-2.1573-0.71211-3.5397-1.885-1.3824-1.131-2.1992-1.9479-0.81685-0.81687-1.3614-3.2046z"/>
<g fill="#fff">
<path d="m43.502 21.295c-1.955 2.178-3.908 4.085-5.863 5.719-1.955 1.633-3.744 3.133-5.364 4.502-1.48 1.256-2.533 2.661-3.162 4.211-0.628 1.549-0.943 2.967-0.943 4.252 0 2.15 0.517 4.118 1.551 5.906 1.201 2.066 3.197 3.589 5.99 4.566 2.457-0.419 5.054-0.629 7.791-0.629 2.709 0 5.306 0.21 7.791 0.629 2.737-0.977 4.72-2.5 5.949-4.566 1.061-1.788 1.592-3.756 1.592-5.906 0-1.285-0.321-2.703-0.963-4.252-0.642-1.55-1.69-2.955-3.142-4.211-1.648-1.369-3.45-2.869-5.405-4.502-1.955-1.634-3.895-3.541-5.822-5.719zm0 9.844c0.977 0 1.467 0.489 1.467 1.466v3.604h3.601c0.922 0 1.383 0.474 1.383 1.424 0 0.949-0.461 1.424-1.383 1.424h-3.601v3.435c0 1.006-0.49 1.508-1.467 1.508-1.005 0-1.508-0.502-1.508-1.508v-3.394l-3.476-0.041c-0.95 0-1.424-0.475-1.424-1.424 0-0.95 0.474-1.424 1.424-1.424h3.476v-3.604c0-0.977 0.503-1.466 1.508-1.466z"/>
<path d="m43.502 63.311q2.8485 0 5.5504-0.48173t5.2153-1.152q-4.9011-1.2986-10.766-1.2986-5.9484 0-10.766 1.2986 2.4296 0.67024 5.1524 1.152 2.7228 0.48173 5.6132 0.48173z"/>
<path d="m43.502 17.693q2.8485 0 2.8485-2.8485t-2.8485-2.8485-2.8485 2.8485 2.8485 2.8485z"/>
<path d="m43.502 57.446q4.9011 0 9.4252 0.96346l-2.0107-5.1524q-3.6863-0.58645-7.4145-0.58645-3.812 0-7.4564 0.58645l-2.0107 5.1524q4.4822-0.96346 9.4671-0.96346z"/>
<path d="m41.994 65.615h-1.3405q-2.3458 3.7701-4.4822 4.7335-1.0054 0.50268-2.2202 0.92158t-2.8066 0.4189q-0.29323 0-4.4822-0.67024-2.0107-0.29323-3.1836-0.62835t-1.8432-0.41888q-2.3877-0.29323-5.5713 0.25132-1.9269 0.33512-3.6025 1.2148l2.0107 3.2674q0.50266-0.50268 1.3195-0.64929 0.81687-0.14665 1.4871-0.31418 1.7594-0.29323 3.3512-0.0837 0.54455 0.12577 2.1364 0.31415 1.5918 0.18849 4.2309 0.60743 3.1417 0.46078 4.2728 0.46078 4.3984 0 6.7443-1.6756 1.4243-1.0891 2.7019-3.037t1.2776-4.7126z"/>
<path d="m44.969 65.615q0 2.7647 1.2776 4.7126t2.7438 3.037q2.3039 1.6756 6.7442 1.6756 1.0891 0 4.2727-0.46079 2.5972-0.41892 4.189-0.60742 1.5918-0.18849 2.1364-0.31416 1.5918-0.20945 3.3512 0.0837 0.67022 0.16752 1.4871 0.31417 0.81685 0.14647 1.3614 0.64929l2.0107-3.2674q-1.7175-0.87969-3.6444-1.2148-3.1836-0.54456-5.5713-0.25133-0.71212 0.0838-1.8641 0.41889-1.152 0.33512-3.1208 0.62835-4.2309 0.67024-4.4822 0.67024-1.6337 0-2.8485-0.4189t-2.1783-0.92158q-2.2201-1.0054-4.5241-4.7335h-1.3405z"/>
</g>
</svg>
