<?xml version="1.0" encoding="UTF-8" standalone="no"?>
<svg xmlns:rdf="http://www.w3.org/1999/02/22-rdf-syntax-ns#" xmlns="http://www.w3.org/2000/svg" xmlns:osb="http://www.openswatchbook.org/uri/2009/osb" height="87" width="87" version="1.0" xmlns:cc="http://creativecommons.org/ns#" xmlns:xlink="http://www.w3.org/1999/xlink" xmlns:dc="http://purl.org/dc/elements/1.1/">
<path fill="currentColor" d="m20.005 64.531-1.3824-7.8334q-0.0419 0-0.12577-0.16752-0.20945-0.29323-1.1939-0.77496-0.9844-0.48174-2.283-1.6547-1.8432-1.5499-2.8694-2.5134-1.0263-0.96347-1.8641-2.0945-2.5553-3.5187-2.8485-8.5036-0.41888-4.8173 3.8958-9.5928 4.3565-4.7754 11.771-4.4822 2.7647 0.16752 6.4929 1.3405 1.2148 0.50266 2.4924 0.98439t2.5343 0.98441q0.67022 0.33512 1.1729 0.67024-0.20943-0.87969-0.20943-1.7594 0-3.2674 2.3249-5.5713 2.3249-2.304 5.5923-2.3458 3.2674 0 5.5713 2.3249t2.3039 5.5504q0 0.67023-0.16752 1.7594 0.58646-0.37701 1.131-0.62835 1.9269-0.83779 5.0687-1.9688 3.6025-1.2148 6.4929-1.3824 7.4145-0.33512 11.729 4.4822 4.2309 4.7754 3.9376 9.5928-0.33512 4.9849-2.8904 8.5036-0.83781 1.131-1.885 2.1154-1.0472 0.98442-2.8066 2.4924-1.3824 1.1729-2.3458 1.6547-0.96347 0.48173-1.131 0.77496-0.0419 0.0837-0.0837 0.1256-0.0419 0.0419-0.0419 0.0838l-1.3404 7.8753 2.7647 10.347q-2.0945 1.885-9.3833 3.0998t-16.84 1.2148q-9.7184 0-17.091-1.2776t-9.2576-3.2046z"/>
<g fill="#fff">
<path d="m22.56 61.976q7.959-2.0107 21.112-2.0107 12.902 0 20.819 1.9269l1.0472-6.1578q-8.4198-2.2202-22.034-2.2202-13.698 0-21.992 2.2621z"/>
<path d="m65.288 69.432-1.2567-4.8173q-8.2942-1.8432-20.526-1.8432-12.19 0-20.484 1.8432l-1.3405 4.8592q8.001-2.3458 21.866-2.3458 13.782 0 21.741 2.3039z"/>
<path d="m66.377 73.37q-8.0847-3.2674-22.704-3.2674-15.164 0-22.956 3.3512 7.3726 2.9323 22.83 2.9323 7.3726 0 13.447-0.81685 6.074-0.81685 9.3833-2.1992z"/>
<path d="m42.039 50.666q-0.0419-1.6337-0.12578-3.2464-0.0837-1.6128-0.62835-3.5816-1.7175-5.6132-5.1943-9.0482-1.8012-1.7594-5.5294-3.2674-4.2728-1.6756-8.0847-1.6756-6.6186 0-9.8022 4.7335-1.8012 2.5134-1.8012 6.2835 0 4.1052 2.0107 6.7442 1.2148 1.5499 3.0998 3.0998t3.5187 2.8066q7.3307-2.639 22.537-2.8485z"/>
<path d="m43.505 42.874q0.29323-1.1729 0.50266-1.6337 0.41892-1.6337 0.96347-2.7647 0.25132-0.71213 0.73306-1.6546 0.48173-0.94252 1.0263-2.1573 0.33512-0.71213 0.71211-1.7384 0.37702-1.0263 0.75402-2.0317 0.33511-0.8378 0.33511-1.8012 0-2.0526-1.4661-3.4978-1.4662-1.4452-3.5606-1.4452-4.9849 0-4.9849 4.9849 0 0.96347 0.3351 1.8013 0.9216 2.7228 1.4243 3.7701 0.54457 1.2148 1.0054 2.1573 0.46079 0.94252 0.79591 1.6546 0.54455 1.3824 0.92157 2.7647 0.0837 0.25134 0.50268 1.5918z"/>
<path d="m44.929 50.666q7.205 0.0839 13.195 0.85874 5.9902 0.77496 9.3833 1.9479 1.5918-1.2567 3.4768-2.7857t3.1417-3.1208q2.0107-2.5553 2.0107-6.7442 0-3.7701-1.8012-6.2835-3.2255-4.6916-9.8022-4.6916-3.9376 0-8.0847 1.6337-3.6444 1.4662-5.5294 3.2674-3.5188 3.5188-5.1943 9.0482-0.58646 1.9688-0.69118 3.5816-0.10473 1.6127-0.10473 3.2883z"/>
</g>
<path fill="currentColor" d="m44.971 21.092h-2.9742v-5.4876h-3.4768q-1.4242 0-1.4242-1.3824v-0.0419q0-1.3824 1.4242-1.3824h3.4768v-3.5606q0-1.4661 1.5081-1.4661 1.4661 0 1.4661 1.4661v3.5606h3.6025q1.3824 0 1.3824 1.3824v0.0419q0 1.3824-1.3824 1.3824l-3.5606 0.0419z"/>
</svg>
