<?xml version="1.0" encoding="UTF-8" standalone="no"?>
<svg xmlns:rdf="http://www.w3.org/1999/02/22-rdf-syntax-ns#" xmlns="http://www.w3.org/2000/svg" xmlns:osb="http://www.openswatchbook.org/uri/2009/osb" height="87" width="87" version="1.0" xmlns:cc="http://creativecommons.org/ns#" xmlns:xlink="http://www.w3.org/1999/xlink" xmlns:dc="http://purl.org/dc/elements/1.1/">
<path fill="currentColor" d="m45.768 16.146q6.5767 0.4189 12.19 3.3931 5.6132 2.9742 9.5509 7.6239 2.7647 3.2674 5.2153 7.8753t3.9167 9.7603q1.6756 5.9902 2.1154 12.588 0.43982 6.5976 0.43982 12.211v9.132h-6.5138-16.902-28.108q-0.37701 0-0.35605-2.0526 0.0209-2.0526 0.27227-3.3093 0.16752-1.0053 0.79591-2.8485 0.62834-1.8431 2.0945-4.4822 0.67024-1.3405 3.1836-3.9167t5.7808-5.9693q1.885-1.9269 2.9532-4.8592t0.90063-5.32q-1.5499 1.2567-3.3931 2.0526-8.8806 3.1836-12.86 9.2157-0.29323 0.37701-1.885 3.3931-0.8378 1.5918-1.4243 2.1783-0.7959 0.79591-2.3039 0.87969-2.3458 0.1256-3.6444-2.262-1.7594 0.50267-3.1417 0.41889-2.3458-0.87968-3.3931-1.885-2.1364-2.1364-2.7857-4.2728-0.64927-2.1364-0.64927-4.6079 0-3.5187 4.3565-9.2995 5.1106-6.6605 5.4457-10.137 0-1.508 0.29321-3.3931 0.25134-1.2986 1.0472-2.5134 0.54457-0.8378 0.73308-1.152 0.1885-0.31417 0.69118-0.94252 0.37701-0.50268 0.62835-0.77496 0.25134-0.27229 0.62835-0.73306 0.46079-0.54457 1.1729-1.2567-2.2202-6.1159-1.8012-12.609 8.336 2.9742 13.991 9.3414 1.3824-4.7335 5.4457-7.6658 3.3512 2.3458 5.32 6.1997z"/>
<path fill="#fff" d="m23.9 12.67c0.336 3.882 1.397 7.553 3.184 11.016 0.475 0.726 0.364 1.369-0.334 1.927-0.782 0.615-1.438 0.517-1.969-0.293-0.195-0.279-0.475-0.781-0.838-1.508-0.586 0.587-0.978 1.02-1.173 1.299-0.196 0.252-0.537 0.808-1.026 1.674s-0.845 1.578-1.068 2.137c-0.252 0.698-0.357 1.264-0.315 1.697s0.078 0.915 0.106 1.445c-0.252 1.648-0.818 3.197-1.697 4.649-0.88 1.452-2.003 3.226-3.372 5.32-1.312 2.011-2.319 3.52-3.017 4.526-0.698 1.005-1.229 2.289-1.592 3.853-0.251 0.95-0.251 2.101 0 3.455 0.251 1.355 0.797 2.41 1.635 3.164 1.284 1.313 2.528 1.913 3.728 1.801 0.391 0 0.914-0.154 1.571-0.461 0.656-0.307 1.166-0.894 1.529-1.76 0.726-1.591 1.326-2.386 1.801-2.386 0.698 0 1.075 0.39 1.131 1.171 0 0.168-0.224 0.865-0.67 2.094-0.252 0.559-0.587 1.146-1.006 1.76-0.531 0.726-0.767 1.034-0.711 0.922 0.447 1.592 1.185 1.871 2.219 0.838 0.307-0.307 0.657-0.879 1.048-1.717s1.004-1.97 1.842-3.395c0.978-1.647 2.026-2.986 3.143-4.019s2.109-1.871 2.974-2.514c0.503-0.363 1.116-0.783 1.842-1.258 0.726-0.474 1.705-0.962 2.934-1.464 0.977-0.391 2.059-0.873 3.246-1.446 1.187-0.572 2.24-1.305 3.162-2.199 1.285-1.257 2.276-2.807 2.975-4.65 0.363-1.034 0.501-2.305 0.418-3.813-0.252-0.949 0.225-1.424 1.425-1.424 0.894 0 1.396 0.462 1.508 1.383 0 3.156-0.894 6.032-2.681 8.629 0.586 1.787 0.74 3.743 0.46 5.865-0.251 1.704-0.845 3.526-1.781 5.467-0.935 1.941-2.827 4.097-5.676 6.471-5.78 4.803-8.516 9.747-8.209 14.83h7.141 13.426 22.914c-0.028 0 0-0.761 0.084-2.283s0.125-3.163 0.125-4.922c0.028-3.491 0.028-7.102 0-10.83s-0.53-7.448-1.508-11.162c-0.949-3.575-1.996-6.627-3.14-9.155-1.145-2.527-2.389-4.711-3.729-6.554-2.011-3.016-4.748-5.572-8.211-7.666-3.463-2.095-7.079-3.464-10.85-4.106 0.252 1.369 0.364 2.709 0.336 4.022-0.056 1.005-0.532 1.507-1.425 1.507-1.034 0-1.493-0.502-1.381-1.507 0.083-3.687-1.229-6.842-3.938-9.467-2.122 2.234-3.268 4.831-3.435 7.791-0.056 0.977-0.559 1.41-1.508 1.299-0.894-0.028-1.342-0.546-1.342-1.551l0.084-0.334c-1.145 0.363-2.345 0.878-3.601 1.549-0.81 0.558-1.467 0.42-1.969-0.418-0.503-0.838-0.28-1.494 0.67-1.969 1.201-0.614 2.108-1.076 2.722-1.383-2.401-2.457-5.139-4.439-8.211-5.947zm6.309 14.389c0.592 0 1.002 0.313 1.232 0.941 0.336 0.894 0.084 1.509-0.753 1.844l-0.461 0.23-0.461 0.231c0.363 0.558 0.503 1.145 0.42 1.759-0.28 1.788-1.272 2.541-2.975 2.262-0.503-0.084-0.908-0.25-1.215-0.502-0.112 0.14-0.28 0.445-0.504 0.92-0.307 0.894-0.892 1.201-1.758 0.922-0.865-0.335-1.201-0.963-1.005-1.885 1.256-3.211 3.532-5.418 6.828-6.619 0.237-0.07 0.455-0.103 0.652-0.103zm-13.639 20.693c0.335 0.028 0.656 0.215 0.963 0.564 0.615 0.754 0.545 1.411-0.209 1.969v0.002c-0.81 0.503-1.297 1.172-1.465 2.01 0.028 0.921-0.405 1.424-1.298 1.508-0.978 0.111-1.48-0.307-1.508-1.256 0.111-1.843 0.934-3.309 2.47-4.399 0.363-0.293 0.712-0.426 1.047-0.398z"/>
</svg>
