<?xml version="1.0" encoding="UTF-8" standalone="no"?>
<svg xmlns:rdf="http://www.w3.org/1999/02/22-rdf-syntax-ns#" xmlns="http://www.w3.org/2000/svg" xmlns:osb="http://www.openswatchbook.org/uri/2009/osb" height="87" width="87" version="1.0" xmlns:cc="http://creativecommons.org/ns#" xmlns:xlink="http://www.w3.org/1999/xlink" xmlns:dc="http://purl.org/dc/elements/1.1/">
<path fill="currentColor" d="m43.53 77.787h-22.62q-1.6756-4.189-1.6756-8.755 0-7.7496 4.3984-13.907 4.3984-6.1578 11.31-8.7968-2.9742-1.3824-4.8383-4.168-1.8641-2.7857-1.8641-6.3044 0-4.3984 2.9323-7.6239t7.205-3.7282q-3.3931-2.5553-3.3931-6.7442 0-3.5187 2.4924-6.0321t6.0531-2.5134q3.5187 0 6.0321 2.5134t2.5134 6.0321q0 4.189-3.3931 6.7442 4.2728 0.50268 7.205 3.7282 2.9323 3.2255 2.9323 7.6239 0 3.5187-1.906 6.3044t-4.8383 4.168q6.9118 2.639 11.31 8.7968 4.3984 6.1578 4.3984 13.907 0 4.5241-1.6337 8.755h-22.62z"/>
<path fill="#fff" d="m43.53 74.938h20.568q0.87967-3.0161 0.87967-5.9065 0-6.5348-3.6235-11.855-3.6234-5.32-9.3205-7.8334-2.7647-0.20945-2.7647-3.0161 0-2.2202 2.8066-3.2674 3.8957-2.7228 3.8957-7.205 0-3.2255-2.1783-5.6551t-5.2781-2.8066q-2.5134-0.20945-2.5134-2.8485 0-1.1729 0.92158-2.1783 2.262-1.7594 2.262-4.6079 0-2.3458-1.6756-4.0214t-3.9795-1.6756q-2.3877 0-4.0424 1.6756-1.6546 1.6756-1.6546 4.0214 0 2.8066 2.262 4.6079 0.92156 0.92158 0.92156 2.1783 0 2.6391-2.4715 2.8485-3.1418 0.37701-5.2991 2.8066t-2.1573 5.6551q0 4.4822 3.8958 7.205 2.8066 1.0891 2.8066 3.2674 0 2.8066-2.8066 3.0161-5.697 2.5134-9.2995 7.8334t-3.6025 11.855q0 3.0998 0.87969 5.9065h20.568z"/>
</svg>
