<?xml version="1.0" encoding="UTF-8" standalone="no"?>
<svg xmlns:rdf="http://www.w3.org/1999/02/22-rdf-syntax-ns#" xmlns="http://www.w3.org/2000/svg" xmlns:osb="http://www.openswatchbook.org/uri/2009/osb" height="87" width="87" version="1.0" xmlns:cc="http://creativecommons.org/ns#" xmlns:xlink="http://www.w3.org/1999/xlink" xmlns:dc="http://purl.org/dc/elements/1.1/">
<g fill="currentColor">
<path d="m76.55 25.785q-2.3877 0-4.0633-1.6546t-1.6756-4.0424q0-2.3458 1.6756-4.0424 1.6756-1.6965 4.0633-1.6965 2.3458 0 4.0214 1.6965t1.6756 4.0424q0 2.3877-1.6756 4.0424-1.6756 1.6546-4.0214 1.6546z"/>
<path d="m61.051 21.177q-2.3877 0-4.0424-1.6546-1.6546-1.6546-1.6546-4.0424 0-2.3458 1.6546-4.0214 1.6547-1.6756 4.0424-1.6756t4.0633 1.6756 1.6756 4.0214q0 2.3877-1.6756 4.0424-1.6756 1.6546-4.0633 1.6546z"/>
<path d="m43.457 19.083q-2.3877 0-4.0424-1.6756t-1.6547-4.0633q0-2.3458 1.6547-4.0214 1.6546-1.6756 4.0424-1.6756 2.3458 0 4.0423 1.6756 1.6966 1.6756 1.6966 4.0214 0 2.3877-1.6966 4.0633-1.6965 1.6756-4.0423 1.6756z"/>
<path d="m25.864 21.177q-2.3877 0-4.0633-1.6546t-1.6756-4.0424q0-2.3458 1.6756-4.0214t4.0633-1.6756q2.3458 0 4.0214 1.6756t1.6756 4.0214q0 2.3877-1.6756 4.0424-1.6756 1.6546-4.0214 1.6546z"/>
<path d="m10.448 25.785q-2.3877 0-4.0424-1.6546-1.6546-1.6546-1.6546-4.0424 0-2.3458 1.6546-4.0424 1.6547-1.6965 4.0424-1.6965t4.0633 1.6965 1.6756 4.0424q0 2.3877-1.6756 4.0424-1.6756 1.6546-4.0633 1.6546z"/>
<path d="m69.261 75.131q-2.0526 1.8013-9.2157 3.0161t-16.505 1.2148q-9.509 0-16.714-1.2567t-9.0901-3.1417l2.6391-10.054-1.1729-6.5767-3.6863-6.4091-3.5606-26.055 2.0526-0.7959 11.478 19.353 0.25135-23.039 2.8485-0.50268 8.755 23.165 4.6917-24.924h2.8904l4.6917 24.841 8.6712-23.081 2.8904 0.50268 0.25135 23.039 11.52-19.395 1.9688 0.92157-3.4769 25.93-3.7282 6.4091-1.1729 6.6605z"/>
</g>
<g fill="#fff">
<path d="m43.457 16.15q2.8066 0 2.8066-2.8066 0-2.7647-2.8066-2.7647-2.7647 0-2.7647 2.7647 0 2.8066 2.7647 2.8066z"/>
<path d="m64.779 58.333q-8.0847-2.0526-21.154-2.0526-13.405 0-21.406 2.0945l0.62835 4.0214q8.1685-1.9269 20.777-1.9269 12.525 0 20.442 1.885z"/>
<path d="m65.826 55.82 2.7228-4.8173q-2.0107 0.79589-4.1052 0.79589-5.6132 0-8.9644-4.566-2.5134 2.0945-5.6132 2.0945-4.0214 0-6.4091-3.1417-2.6809 2.9323-6.4091 2.9323-3.0161 0-5.5295-2.0526-3.5187 4.4822-9.0901 4.4822-2.1364 0-4.2309-0.79591l2.9323 5.0268q8.1266-2.3458 22.327-2.3458 14.452 0 22.369 2.3877z"/>
<path d="m47.06 45.808-3.5606-20.484-3.5606 20.233q0.12572-0.0838 0.58645-0.41889 0.96347-1.885 2.9323-1.885 2.1364 0 2.7647 1.885 0.25133 0.25133 0.83778 0.67023z"/>
<path d="m58.663 46.604v-19.395l-6.9118 19.018q0.79591-0.29323 1.3405-0.75402 0.8378-1.0472 2.2621-1.0472 1.6756 0 2.681 1.4661 0.12572 0.16753 0.29322 0.35607 0.16749 0.1885 0.33512 0.35606z"/>
<path d="m35.121 46.018-6.8699-18.808v19.144q0.12572-0.16752 0.377-0.4189 0.8378-1.7594 2.7647-1.7594 1.5918 0 2.5972 1.3405z"/>
<path d="m24.481 48.363-9.0063-15.541 2.3039 14.159q2.3877 1.6756 4.6498 1.6756 0.87968 0 2.0526-0.29323z"/>
<path d="m62.308 48.573q0.96347 0.29323 2.1364 0.29323 2.5553 0 4.7754-1.5918l2.304-14.494z"/>
<path d="m64.821 69.769-1.2567-4.7335q-8.2104-1.8013-20.107-1.8013-11.771 0-20.065 1.8013l-1.2986 4.7754q7.7915-2.3458 21.406-2.3458 13.279 0 21.322 2.3039z"/>
<path d="m65.868 73.623q-7.6658-3.1836-22.243-3.1836-14.871 0-22.495 3.2674 7.3307 2.8904 22.369 2.8904 7.205 0 13.174-0.79591 5.9693-0.7959 9.1948-2.1782z"/>
<path d="m25.864 18.245q2.7647 0 2.7647-2.7647t-2.7647-2.7647q-2.8066 0-2.8066 2.7647t2.8066 2.7647z"/>
<path d="m61.051 18.245q2.8066 0 2.8066-2.7647t-2.8066-2.7647q-2.7647 0-2.7647 2.7647t2.7647 2.7647z"/>
<path d="m10.448 22.853q2.8066 0 2.8066-2.7647 0-2.8066-2.8066-2.8066-2.7647 0-2.7647 2.8066 0 2.7647 2.7647 2.7647z"/>
<path d="m76.55 22.853q2.7647 0 2.7647-2.7647 0-2.8066-2.7647-2.8066-2.8066 0-2.8066 2.8066 0 2.7647 2.8066 2.7647z"/>
</g>
</svg>
