<?xml version="1.0" encoding="UTF-8" standalone="no"?>
<svg xmlns:rdf="http://www.w3.org/1999/02/22-rdf-syntax-ns#" xmlns="http://www.w3.org/2000/svg" xmlns:osb="http://www.openswatchbook.org/uri/2009/osb" height="87" width="87" version="1.0" xmlns:cc="http://creativecommons.org/ns#" xmlns:xlink="http://www.w3.org/1999/xlink" xmlns:dc="http://purl.org/dc/elements/1.1/">
<path fill="currentColor" d="m49.26 14.939h7.1212v-5.7389h11.478v15.709l-9.2995 7.1632v20.023l7.1212 7.1212v8.5874h6.4091v10.012h-57.179v-10.012h6.4091v-8.5874l7.1631-7.1212v-20.023l-9.2995-7.1632v-15.709h11.436v5.7389h7.1631v-5.7389h11.478v5.7389z"/>
<g fill="#fff">
<path d="m69.283 70.652h-51.524v4.3146h51.524v-4.3146z"/>
<path d="m62.79 62.107h-38.539v5.697h38.539v-5.697z"/>
<path d="m55.669 32.072h-24.296v20.023h24.296v-20.023z"/>
<path d="m64.968 22.06v-10.012h-5.7389v5.7389h-12.902v-5.7389h-5.6551v5.7389h-12.86v-5.7389h-5.7389v10.012h42.895z"/>
<path d="m61.743 59.216-4.3146-4.2728h-27.773l-4.3984 4.2728h36.486z"/>
<path d="m57.135 29.223 5.32-4.3146h-37.868l5.3619 4.3146h27.186z"/>
</g>
</svg>
